<svg width="626px" height="110px" viewBox="0 0 626 110" version="1.1" xmlns="http://www.w3.org/2000/svg" xmlns:xlink="http://www.w3.org/1999/xlink">
    <g id="⌞-Analytics-(in-design)" stroke="none" stroke-width="1" fill="none" fill-rule="evenodd">
        <g id="analytics" transform="translate(-357.000000, -185.000000)" stroke="#0D183A">
            <g id="intro" transform="translate(24.000000, 108.000000)">
                <g id="line-placeholder-copy" transform="translate(330.000000, 78.000000)">
                    <path d="M0,116 C11.1166467,103.428691 20.2903592,94.2223729 27.5211376,88.3810472 C38.3673051,79.6190585 44.8814664,71.1201254 55.5552694,71.1201254 C66.2290725,71.1201254 81.5436594,91.1040687 92.4495016,91.1040687 C103.355344,91.1040687 119.134009,59.9526277 129.807812,59.9526277 C140.481615,59.9526277 156.260281,82.6794652 166.934084,82.6794652 C177.607887,82.6794652 193.386552,38.4013162 204.060355,38.4013162 C214.734158,38.4013162 230.048745,69.7486783 240.954587,69.7486783 C251.860429,69.7486783 267.639095,77.5855188 278.312898,77.5855188 C288.986701,77.5855188 304.765366,54.0749973 315.439169,54.0749973 C326.112972,54.0749973 341.427559,81.5039391 352.101362,81.5039391 C362.775165,81.5039391 378.553831,93.2591999 389.227634,93.2591999 C399.901437,93.2591999 415.216024,54.4668393 426.121866,54.4668393 C437.027708,54.4668393 452.806373,70.9242044 463.480176,71.3160464 C474.153979,71.7078884 489.932645,-0.195123323 500.606448,-5.1159077e-13 C511.280251,0.196718702 527.058916,57.9934175 537.732719,57.9934175 C548.406522,57.9934175 564.185188,71.3160464 574.858991,71.1201254 C585.532794,70.9242044 601.311459,71.1201254 611.753223,71.1201254 C622.194987,71.1201254 659.785336,71.1201254 649.111533,71.1201254" id="line"></path>
                    <path d="M0,70.8135742 C5.46095207,70.8135742 11.6803697,70.8135742 18.6582529,70.8135742 C29.1250777,70.8135742 44.1426959,90.7113801 54.8370604,90.7113801 C65.5314249,90.7113801 81.0041224,59.694212 91.4709472,59.694212 C101.937772,59.694212 117.41047,82.3230894 127.877294,82.3230894 C138.344119,82.3230894 153.816817,38.2357939 164.283642,38.2357939 C174.750466,38.2357939 189.768085,69.4480385 200.462449,69.4480385 C211.156814,69.4480385 226.629511,77.2510996 237.096336,77.2510996 C247.563161,77.2510996 263.035858,53.8419162 273.502683,53.8419162 C283.969508,53.8419162 298.987126,81.1526302 309.453951,81.1526302 C319.920776,81.1526302 335.393473,92.8572219 345.860298,92.8572219 C356.327123,92.8572219 371.344741,54.2320692 382.039105,54.2320692 C392.73347,54.2320692 408.206167,70.6184977 418.672992,71.0086507 C429.139817,71.3988038 444.612515,-0.194282278 455.079339,0 C465.546164,0.19587078 481.018862,57.7434468 491.485687,57.7434468 C501.952511,57.7434468 517.425209,71.0086507 527.892034,70.8135742 C538.358859,70.6184977 562.634736,51.0245078 600.704728,70.8135742 C626.084723,84.0062851 642.849814,99.068427 651,116" id="line" transform="translate(325.500000, 58.000000) scale(-1, 1) translate(-325.500000, -58.000000) "></path>
                    <path d="M2.27373675e-13,108.185253 C0.970168614,107.746057 1.7044095,107.427909 2.20272267,107.230812 C7.11349235,105.288454 12.5952595,104.317275 18.6480242,104.317275 C29.109111,104.317275 44.1184963,100.836096 54.806998,100.836096 C65.4954997,100.836096 80.9597149,97.1615169 91.4208016,97.1615169 C101.881888,97.1615169 117.346104,92.5199438 127.80719,92.5199438 C138.268277,92.5199438 153.732492,110.699438 164.193579,110.699438 C174.654666,110.699438 189.664051,79.755618 200.352553,79.755618 C211.041055,79.755618 226.50527,87.491573 236.966356,87.491573 C247.427443,87.491573 262.891658,14 273.352745,14 C283.813832,14 298.823217,91.3595506 309.284304,91.3595506 C319.745391,91.3595506 335.209606,79.755618 345.670693,79.755618 C356.131779,79.755618 371.141165,64.6705056 381.829667,64.6705056 C392.518168,64.6705056 407.982383,57.7081461 418.44347,58.0949438 C428.904557,58.4817416 444.368772,45.5240169 454.829859,45.7174157 C465.290946,45.9108146 480.755161,68.1516854 491.216248,68.1516854 C501.677334,68.1516854 517.14155,81.302809 527.602636,81.1094101 C538.063723,80.9160112 553.527938,46.2976124 563.76161,46.2976124 C573.995282,46.2976124 578.412505,63.5613192 600.375414,81.1094101 C615.017353,92.8081374 631.892215,104.438334 651,116" id="line" transform="translate(325.500000, 65.000000) scale(-1, 1) translate(-325.500000, -65.000000) "></path>
                    <path d="M0,113.403459 C5.45539102,113.403459 11.6684752,113.403459 18.6392527,113.403459 C29.0954188,113.403459 44.0977441,120.260514 54.7812182,120.260514 C65.4646923,120.260514 80.9216335,109.571575 91.3777996,109.571575 C101.833966,109.571575 117.290907,117.369794 127.747073,117.369794 C138.203239,117.369794 153.66018,102.176712 164.116347,102.176712 C174.572513,102.176712 189.574838,112.932876 200.258312,112.932876 C210.941786,112.932876 226.398727,115.621918 236.854894,115.621918 C247.31106,115.621918 262.768001,107.554794 273.224167,107.554794 C283.680333,107.554794 298.682658,116.966438 309.138825,116.966438 C319.594991,116.966438 335.051932,121 345.508098,121 C355.964264,121 370.96659,107.689246 381.650064,107.689246 C392.333538,107.689246 407.790479,113.336233 418.246645,113.470685 C428.702811,113.605137 444.159752,88.9331837 454.615919,89.0004097 C465.072085,89.0676358 480.529026,108.899315 490.985192,108.899315 C501.441358,108.899315 516.898299,113.470685 527.354465,113.403459 C537.810632,113.336233 552.893066,113.700183 563.496431,113.403459 C574.099796,113.106734 586.032587,113.106734 600.093012,113.403459 C609.46663,113.601275 626.435626,114.331989 651,115.595602" id="line" transform="translate(325.500000, 105.000000) scale(-1, 1) translate(-325.500000, -105.000000) "></path>
                    <path d="M0,111.468661 C5.46095207,111.468661 11.6803697,111.468661 18.6582529,111.468661 C29.1250777,111.468661 44.1426959,123.68279 54.8370604,123.68279 C65.5314249,123.68279 81.0041224,104.643118 91.4709472,104.643118 C101.937772,104.643118 117.41047,118.533696 127.877294,118.533696 C138.344119,118.533696 153.816817,91.4710175 164.283642,91.4710175 C174.750466,91.4710175 189.768085,110.630436 200.462449,110.630436 C211.156814,110.630436 226.629511,115.420291 237.096336,115.420291 C247.563161,115.420291 263.035858,101.050727 273.502683,101.050727 C283.969508,101.050727 298.987126,117.815218 309.453951,117.815218 C319.920776,117.815218 335.393473,125 345.860298,125 C356.327123,125 371.344741,101.29022 382.039105,101.29022 C392.73347,101.29022 408.206167,111.348914 418.672992,111.588407 C429.139817,111.8279 444.612515,67.8809835 455.079339,68.0007298 C465.546164,68.1204762 481.018862,103.445654 491.485687,103.445654 C501.952511,103.445654 517.425209,111.588407 527.892034,111.468661 C538.358859,111.348914 553.831556,111.468661 564.070841,111.468661 C570.897031,111.468661 583.108327,111.468661 600.704728,111.468661 L651,115.523831" id="line" transform="translate(325.500000, 96.500000) scale(-1, 1) translate(-325.500000, -96.500000) "></path>
                    <path d="M0,90.4749282 C5.45539102,90.4749282 11.6684752,90.4749282 18.6392527,90.4749282 C29.0954188,90.4749282 44.0977441,111.96351 54.7812182,111.96351 C65.4646923,111.96351 80.9216335,78.4666031 91.3777996,78.4666031 C101.833966,78.4666031 117.290907,102.904598 127.747073,102.904598 C138.203239,102.904598 153.66018,55.2926424 164.116347,55.2926424 C174.572513,55.2926424 189.574838,89.0002216 200.258312,89.0002216 C210.941786,89.0002216 226.398727,97.4271165 236.854894,97.4271165 C247.31106,97.4271165 262.768001,72.146432 273.224167,72.146432 C283.680333,72.146432 298.682658,101.640564 309.138825,101.640564 C319.594991,101.640564 335.051932,114.280906 345.508098,114.280906 C355.964264,114.280906 370.96659,72.5677767 381.650064,72.5677767 C392.333538,72.5677767 407.790479,90.2642559 418.246645,90.6856006 C428.702811,91.1069453 444.159752,13.7901854 454.615919,14 C465.072085,14.2115301 480.529026,76.3598794 490.985192,76.3598794 C501.441358,76.3598794 516.898299,90.6856006 527.354465,90.4749282 C537.810632,90.2642559 564.066082,79.9657571 600.093012,90.4749282 C624.110966,97.4810423 641.079962,105.9894 651,116" id="line" transform="translate(325.500000, 65.000000) scale(-1, 1) translate(-325.500000, -65.000000) "></path>
                </g>
            </g>
        </g>
    </g>
</svg>
