<?xml version="1.0" encoding="UTF-8"?>
<svg width="116px" height="24px" viewBox="0 0 116 24" version="1.1" xmlns="http://www.w3.org/2000/svg" xmlns:xlink="http://www.w3.org/1999/xlink">
    <!-- Generator: Sketch 53 (72520) - https://sketchapp.com -->
    <title>logo</title>
    <desc>Created with Sketch.</desc>
    <g id="Log-In" stroke="none" stroke-width="1" fill="none" fill-rule="evenodd">
        <g id="login" transform="translate(-518.000000, -64.000000)" fill="#222A2E">
            <path d="M576.370843,69.7325453 L578.633096,69.7325453 C578.869874,69.7325453 579.062041,69.9214846 579.062041,70.1547561 L579.062041,71.3567901 C579.925292,70.2073213 581.295984,69.4828077 582.971442,69.4828077 C586.170725,69.4828077 588.12564,71.5315853 588.12564,74.9301707 L588.12564,82.2276613 L585.812556,82.2276613 C585.575779,82.2276613 585.383612,82.0385109 585.383612,81.8054506 L585.383612,75.1552091 C585.383612,73.1064314 584.342778,71.8066556 582.311725,71.8066556 C580.483778,71.8066556 579.087563,73.1560412 579.087563,75.3551259 L579.087563,82.2276613 L576.799787,82.2276613 C576.562795,82.2276613 576.370843,82.0385109 576.370843,81.8054506 L576.370843,69.7325453 Z M590.816516,79.5784366 L592.909551,78.5055991 C593.099359,78.4082796 593.332062,78.4650669 593.456027,78.6369067 C594.149416,79.5980694 595.190893,80.1534877 596.503463,80.1534877 C598.02686,80.1534877 598.813544,79.378731 598.813544,78.5041214 C598.813544,77.5047486 597.341192,77.2794991 595.741872,76.9546079 C593.583852,76.5047424 591.349694,75.8051392 591.349694,73.2311314 C591.349694,71.2572961 593.253994,69.4327124 596.249743,69.4576228 C598.610654,69.4576228 600.362463,70.3822643 601.352467,71.8819569 L599.420286,72.9290396 C599.237556,73.028048 599.012575,72.9801271 598.879173,72.8220091 C598.281224,72.1141728 597.375293,71.681829 596.249743,71.681829 C594.802484,71.681829 594.0662,72.3814322 594.0662,73.1810994 C594.0662,74.0810416 595.234216,74.3307793 597.062164,74.7304017 C599.143832,75.1804784 601.504957,75.8551712 601.504957,78.4543005 C601.504957,80.1783981 599.98156,82.5024572 596.376496,82.4773356 C593.735913,82.4773356 591.883087,81.4277197 590.816516,79.5784366 Z M604.678246,69.7325453 L606.991115,69.7325453 C607.228107,69.7325453 607.42006,69.9214846 607.42006,70.1547561 L607.42006,82.2276613 L605.107191,82.2276613 C604.870199,82.2276613 604.678246,82.0385109 604.678246,81.8054506 L604.678246,69.7325453 Z M604.678246,64.5100095 L606.991115,64.5100095 C607.228107,64.5100095 607.42006,64.6989488 607.42006,64.9322202 L607.42006,67.3751316 L605.107191,67.3751316 C604.870199,67.3751316 604.678246,67.1861923 604.678246,66.9529209 L604.678246,64.5100095 Z M610.706311,69.7325453 L612.864117,69.7325453 L612.864117,67.0344075 C612.864117,66.8800895 612.949906,66.7380156 613.087597,66.6639176 L615.606145,65.3094655 L615.606145,69.7325453 L617.868613,69.7325453 C618.105391,69.7325453 618.297558,69.9214846 618.297558,70.1547561 L618.297558,72.1317579 L615.606145,72.1317579 L615.606145,77.1047672 C615.606145,79.2107544 615.917774,79.6515424 617.875905,79.69883 C618.109251,79.7045299 618.297344,79.8909359 618.297344,80.1208297 L618.297558,82.2276613 L617.891133,82.2276613 C614.032133,82.2276613 612.864117,81.0279495 612.864117,77.1296776 L612.864117,72.1317579 L611.135256,72.1317579 C610.898264,72.1317579 610.706311,71.9426075 610.706311,71.7095472 L610.706311,69.7325453 Z M625.719564,81.5777523 L620.46435,69.7326298 L623.099142,69.7326298 C623.271792,69.7326298 623.427499,69.8343826 623.494629,69.9910227 L627.090686,78.4042052 L630.48664,69.9988336 C630.551625,69.8379713 630.709477,69.7326298 630.885344,69.7326298 L633.462872,69.7326298 L625.905297,87.7390738 C625.839026,87.8969806 625.682461,88 625.508953,88 L623.003273,88 L625.719564,81.5777523 Z M566.864401,80.1033924 C568.160672,80.1033924 569.227243,79.5950506 569.957735,78.770473 C570.090923,78.620166 570.3114,78.5811115 570.488554,78.6780089 L572.403792,79.728047 C571.236419,81.4076014 569.372655,82.4774834 566.864401,82.4774834 C562.852912,82.4774834 560.161714,79.6531046 560.161714,76.0299031 C560.161714,72.3756691 563.000898,69.512658 566.704405,69.4831032 C570.350005,69.4537596 573.287632,72.4352008 573.287632,76.0235699 L573.287632,76.4823019 C573.287632,76.7155733 573.095465,76.9045126 572.858687,76.9045126 L562.776774,76.9045126 C563.13194,78.8291603 564.655551,80.1033924 566.864401,80.1033924 Z M542.787249,64.4222107 C542.787249,64.1889393 542.979417,64 543.216194,64 L547.907132,64 C553.914072,64 557.614147,67.9413373 557.614147,73.105397 C557.614147,78.2947893 553.558905,82.2112162 548.008577,82.2112162 L542.787249,82.2112162 L542.787249,64.4222107 Z M522.217749,76.7965745 C523.180729,76.22469 523.988003,75.4243895 524.561931,74.471671 C525.163096,73.4737759 525.508397,72.3088964 525.508397,71.0644302 L525.508397,66.6367061 C525.508397,66.4034347 525.70035,66.2144954 525.937341,66.2144954 L527.967965,66.2144954 C528.204742,66.2144954 528.39691,66.4034347 528.39691,66.6367061 L528.39691,71.0644302 C528.39691,72.3088964 528.741996,73.4737759 529.343161,74.471671 C529.917089,75.4241784 530.724363,76.22469 531.687343,76.7965745 L535.690469,79.071446 C535.895719,79.1881872 535.966066,79.4463691 535.847677,79.6481859 L534.832365,81.3792499 C534.713762,81.5810667 534.451462,81.6503092 534.246427,81.5337791 L530.313219,79.2985954 C529.322143,78.7425438 528.175145,78.4248302 526.952653,78.4248302 C525.730161,78.4248302 524.582949,78.7425438 523.591873,79.2985954 L519.65888,81.5337791 C519.45363,81.6503092 519.19133,81.5810667 519.072941,81.3792499 L518.05763,79.6481859 C517.939026,79.4463691 518.009373,79.1881872 518.214623,79.071446 L522.217749,76.7965745 Z M566.762527,71.8318616 C564.883964,71.8318616 563.411398,72.9811193 562.903742,74.6304856 L570.520296,74.6304856 C570.114086,72.8312344 568.717442,71.8318616 566.762527,71.8318616 Z M545.549867,66.4948433 L545.549867,79.6916736 L547.729549,79.6916736 C551.987896,79.6916736 554.826437,76.847662 554.826437,73.105397 C554.826437,69.2886118 552.266281,66.4948433 547.628318,66.4948433 L545.549867,66.4948433 Z" id="logo"></path>
        </g>
    </g>
</svg>