<?xml version="1.0" standalone="no"?>
<!DOCTYPE svg PUBLIC "-//W3C//DTD SVG 1.1//EN" "http://www.w3.org/Graphics/SVG/1.1/DTD/svg11.dtd" >
<svg xmlns="http://www.w3.org/2000/svg">
<metadata>Generated by IcoMoon</metadata>
<defs>
<font id="icomoon" horiz-adv-x="1024">
<font-face units-per-em="1024" ascent="960" descent="-64" />
<missing-glyph horiz-adv-x="1024" />
<glyph unicode="&#x20;" horiz-adv-x="512" d="" />
<glyph unicode="&#xe901;" glyph-name="IconArrowDown" d="M466.824 960v-963.765h90.353v963.765zM512 60.124l-301.176 301.176-63.889-63.889 333.121-333.121c17.643-17.643 46.247-17.643 63.889 0l333.121 333.121-63.889 63.889-301.176-301.176z" />
<glyph unicode="&#xe902;" glyph-name="IconArrowLeft" d="M1024 493.176h-963.765v-90.353h963.765zM124.124 448l301.176 301.176-63.889 63.889-333.121-333.121c-17.643-17.643-17.643-46.247 0-63.889l333.121-333.121 63.889 63.889-301.176 301.176z" />
<glyph unicode="&#xe903;" glyph-name="IconArrowRight" d="M0 402.824h963.765v90.353h-963.765zM598.699 146.824l63.889-63.889 333.121 333.121c17.643 17.643 17.643 46.247 0 63.889l-333.121 333.121-63.889-63.889 301.176-301.176-301.176-301.176z" />
<glyph unicode="&#xe904;" glyph-name="IconArrowUp" d="M557.176-64v963.765h-90.353v-963.765zM512 835.876l301.176-301.176 63.889 63.889-333.121 333.121c-17.643 17.643-46.247 17.643-63.889 0l-333.121-333.121 63.889-63.889 301.176 301.176z" />
<glyph unicode="&#xe905;" glyph-name="IconBucket" d="M80.653 824.109c-4.876 29.258 17.686 55.891 47.347 55.891h768c29.661 0 52.223-26.634 47.347-55.891l-128-768c-3.858-23.145-23.883-40.109-47.347-40.109h-512c-23.464 0-43.489 16.964-47.347 40.109l-128 768zM184.662 784l112-672h430.676l112 672h-654.676zM545.941 641.942c-18.745 18.745-49.138 18.745-67.883 0s-18.745-49.138 0-67.883c18.745-18.745 49.138-18.745 67.883 0s18.745 49.138 0 67.883zM410.175 506.177c-56.235 56.235-56.235 147.413 0 203.648s147.413 56.235 203.648 0c56.235-56.235 56.235-147.413 0-203.648s-147.413-56.235-203.648 0zM0 784h1024v96h-1024zM408.835 572.662l-380.117-412.117 70.567-65.087 380.117 412.117z" />
<glyph unicode="&#xe906;" glyph-name="IconCalendar" d="M56.889-49.778h910.222c23.564 0 42.667 19.103 42.667 42.667v796.444c0 23.564-19.103 42.667-42.667 42.667h-910.222c-23.564 0-42.667-19.103-42.667-42.667v-796.444c0-23.564 19.103-42.667 42.667-42.667zM99.556 746.667h824.889v-711.111h-824.889v711.111zM56.889 462.222h853.333c23.564 0 42.667 19.103 42.667 42.667s-19.103 42.667-42.667 42.667h-853.333c-23.564 0-42.667-19.103-42.667-42.667s19.103-42.667 42.667-42.667zM327.111 675.556v227.556c0 23.564-19.103 42.667-42.667 42.667s-42.667-19.103-42.667-42.667v-227.556c0-23.564 19.103-42.667 42.667-42.667s42.667 19.103 42.667 42.667zM782.222 675.556v227.556c0 23.564-19.103 42.667-42.667 42.667s-42.667-19.103-42.667-42.667v-227.556c0-23.564 19.103-42.667 42.667-42.667s42.667 19.103 42.667 42.667z" />
<glyph unicode="&#xe907;" glyph-name="IconCards" d="M56.889-21.333c-23.564 0-42.667 19.103-42.667 42.667v455.111c0 23.564 19.103 42.667 42.667 42.667h910.222c23.564 0 42.667-19.103 42.667-42.667v-455.111c0-23.564-19.103-42.667-42.667-42.667h-910.222zM99.556 64h824.889v369.778h-824.889v-369.778zM170.667 433.778c-23.564 0-42.667 19.103-42.667 42.667v227.556c0 23.564 19.103 42.667 42.667 42.667h682.667c23.564 0 42.667-19.103 42.667-42.667v-227.556c0-23.564-19.103-42.667-42.667-42.667h-682.667zM213.333 519.111h597.333v142.222h-597.333v-142.222zM284.444 661.333c-23.564 0-42.667 19.103-42.667 42.667v170.667c0 23.564 19.103 42.667 42.667 42.667h455.111c23.564 0 42.667-19.103 42.667-42.667v-170.667c0-23.564-19.103-42.667-42.667-42.667h-455.111zM327.111 746.667h369.778v85.333h-369.778v-85.333z" />
<glyph unicode="&#xe908;" glyph-name="IconCheck" d="M56.889 481.641l-60.34-60.34 349.88-349.88c17.849-17.849 47.208-16.385 63.192 3.152l602.497 736.385-66.044 54.036-572.642-699.896-316.543 316.543z" />
<glyph unicode="&#xe909;" glyph-name="IconCheckCircle" d="M344.080 450.274l-60.34-60.34 143.163-143.163c17.982-17.982 47.601-16.341 63.487 3.516l252.64 315.8-66.634 53.307-222.861-278.576-109.455 109.455zM929.152 443.292c0 227.79-184.655 412.444-412.444 412.444-227.786 0-412.444-184.657-412.444-412.444 0-227.784 184.661-412.444 412.444-412.444 227.788 0 412.444 184.659 412.444 412.444zM1014.486 443.292c0-274.914-222.862-497.778-497.778-497.778-274.912 0-497.778 222.866-497.778 497.778 0 274.916 222.864 497.778 497.778 497.778 274.918 0 497.778-222.86 497.778-497.778z" />
<glyph unicode="&#xe90a;" glyph-name="IconCheckSquare" d="M56.889-49.778c-23.564 0-42.667 19.103-42.667 42.667v910.222c0 23.564 19.103 42.667 42.667 42.667h910.222c23.564 0 42.667-19.103 42.667-42.667v-910.222c0-23.564-19.103-42.667-42.667-42.667h-910.222zM99.556 35.556h824.889v824.889h-824.889v-824.889zM284.444 508.34l-60.34-60.34 200.837-200.837c17.741-17.741 46.886-16.419 62.947 2.855l311.759 374.111-65.555 54.629-281.849-338.218-167.8 167.8z" />
<glyph unicode="&#xe90b;" glyph-name="IconChevronDown" d="M967.111 160.105l60.34 60.34-485.281 485.281c-16.662 16.662-43.677 16.662-60.34 0l-485.281-485.281 60.34-60.34 455.111 455.111 455.111-455.111z" />
<glyph unicode="&#xe90c;" glyph-name="IconChevronDownCircle" d="M512 35.556c227.79 0 412.444 184.655 412.444 412.444 0 227.786-184.657 412.444-412.444 412.444-227.784 0-412.444-184.661-412.444-412.444 0-227.788 184.659-412.444 412.444-412.444zM512-49.778c-274.914 0-497.778 222.862-497.778 497.778 0 274.912 222.866 497.778 497.778 497.778 274.916 0 497.778-222.864 497.778-497.778 0-274.918-222.86-497.778-497.778-497.778zM341.333 565.229l-60.34-60.34 200.837-200.837c16.662-16.662 43.677-16.662 60.34 0l200.837 200.837-60.34 60.34-170.667-170.667-170.667 170.667z" />
<glyph unicode="&#xe90d;" glyph-name="IconChevronLeft" horiz-adv-x="539" d="M533.845 897.734l-57.164 57.164-459.74-459.74c-15.785-15.785-15.785-41.379 0-57.164l459.74-459.74 57.164 57.164-431.158 431.158 431.158 431.158z" />
<glyph unicode="&#xe90e;" glyph-name="IconChevronLeftCircle" d="M99.556 448c0-227.79 184.655-412.444 412.444-412.444 227.786 0 412.444 184.657 412.444 412.444 0 227.784-184.661 412.444-412.444 412.444-227.788 0-412.444-184.659-412.444-412.444zM14.222 448c0 274.914 222.862 497.778 497.778 497.778 274.912 0 497.778-222.866 497.778-497.778 0-274.916-222.864-497.778-497.778-497.778-274.918 0-497.778 222.86-497.778 497.778zM629.229 618.667l-60.34 60.34-200.837-200.837c-16.662-16.662-16.662-43.677 0-60.34l200.837-200.837 60.34 60.34-170.667 170.667 170.667 170.667z" />
<glyph unicode="&#xe90f;" glyph-name="IconChevronRight" horiz-adv-x="539" d="M5.102 35.418l57.164-57.164 459.74 459.74c15.785 15.785 15.785 41.379 0 57.164l-459.74 459.74-57.164-57.164 431.158-431.158-431.158-431.158z" />
<glyph unicode="&#xe910;" glyph-name="IconChevronRightCircle" d="M924.444 448c0 227.79-184.655 412.444-412.444 412.444-227.786 0-412.444-184.657-412.444-412.444 0-227.784 184.661-412.444 412.444-412.444 227.788 0 412.444 184.659 412.444 412.444zM1009.778 448c0-274.914-222.862-497.778-497.778-497.778-274.912 0-497.778 222.866-497.778 497.778 0 274.916 222.864 497.778 497.778 497.778 274.918 0 497.778-222.86 497.778-497.778zM394.771 277.333l60.34-60.34 200.837 200.837c16.662 16.662 16.662 43.677 0 60.34l-200.837 200.837-60.34-60.34 170.667-170.667-170.667-170.667z" />
<glyph unicode="&#xe911;" glyph-name="IconChevronUp" d="M967.111 160.105l60.34 60.34-485.281 485.281c-16.662 16.662-43.677 16.662-60.34 0l-485.281-485.281 60.34-60.34 455.111 455.111 455.111-455.111z" />
<glyph unicode="&#xe912;" glyph-name="IconChevronUpCircle" d="M512 860.444c-227.79 0-412.444-184.655-412.444-412.444 0-227.786 184.657-412.444 412.444-412.444 227.784 0 412.444 184.661 412.444 412.444 0 227.788-184.659 412.444-412.444 412.444zM512 945.778c274.914 0 497.778-222.862 497.778-497.778 0-274.912-222.866-497.778-497.778-497.778-274.916 0-497.778 222.864-497.778 497.778 0 274.918 222.86 497.778 497.778 497.778zM682.667 330.771l60.34 60.34-200.837 200.837c-16.662 16.662-43.677 16.662-60.34 0l-200.837-200.837 60.34-60.34 170.667 170.667 170.667-170.667z" />
<glyph unicode="&#xe913;" glyph-name="IconCircle" d="M512 35.556c227.788 0 412.444 184.659 412.444 412.444 0 227.79-184.655 412.444-412.444 412.444-227.786 0-412.444-184.657-412.444-412.444 0-227.784 184.661-412.444 412.444-412.444zM512-49.778c-274.912 0-497.778 222.866-497.778 497.778 0 274.916 222.864 497.778 497.778 497.778 274.918 0 497.778-222.86 497.778-497.778 0-274.914-222.862-497.778-497.778-497.778z" />
<glyph unicode="&#xe914;" glyph-name="IconClose" d="M90.388-34.335l903.945 903.945-60.34 60.34-903.945-903.945zM994.333 26.005l-903.945 903.945-60.34-60.34 903.945-903.945z" />
<glyph unicode="&#xe915;" glyph-name="IconCloseCircle" d="M400.576 273.098l286.326 286.326-60.34 60.34-286.326-286.326zM686.902 333.438l-286.326 286.326-60.34-60.34 286.326-286.326zM922.875 446.431c0 226.056-183.249 409.306-409.306 409.306-226.052 0-409.306-183.252-409.306-409.306 0-226.050 183.256-409.306 409.306-409.306 226.054 0 409.306 183.253 409.306 409.306zM1008.208 446.431c0-273.181-221.456-494.639-494.639-494.639-273.178 0-494.639 221.461-494.639 494.639 0 273.183 221.459 494.639 494.639 494.639 273.185 0 494.639-221.454 494.639-494.639z" />
<glyph unicode="&#xe916;" glyph-name="IconCloseSquare" d="M61.597-48.208c-23.564 0-42.667 19.103-42.667 42.667v903.945c0 23.564 19.103 42.667 42.667 42.667h903.945c23.564 0 42.667-19.103 42.667-42.667v-903.945c0-23.564-19.103-42.667-42.667-42.667h-903.945zM104.264 37.125h818.611v818.611h-818.611v-818.611zM344.080 216.601l399.319 399.319-60.34 60.34-399.319-399.319zM743.399 276.941l-399.319 399.319-60.34-60.34 399.319-399.319z" />
<glyph unicode="&#xe917;" glyph-name="IconCopy" d="M891.259 35.556c18.154 0 33.185 15.031 33.185 33.185v530.963c0 18.154-15.031 33.185-33.185 33.185h-417.185c-18.154 0-33.185-15.031-33.185-33.185v-530.963c0-18.154 15.031-33.185 33.185-33.185h417.185zM891.259-49.778h-417.185c-65.283 0-118.519 53.236-118.519 118.519v530.963c0 65.283 53.236 118.519 118.519 118.519h417.185c65.283 0 118.519-53.236 118.519-118.519v-530.963c0-65.283-53.236-118.519-118.519-118.519zM440.889 263.111h-308.148c-18.154 0-33.185 15.031-33.185 33.185v530.963c0 18.154 15.031 33.185 33.185 33.185h417.185c18.154 0 33.185-15.031 33.185-33.185v-194.37h85.333v194.37c0 65.283-53.236 118.519-118.519 118.519h-417.185c-65.283 0-118.519-53.236-118.519-118.519v-530.963c0-65.283 53.236-118.519 118.519-118.519h308.148v85.333z" />
<glyph unicode="&#xe918;" glyph-name="IconDownload" d="M924.444 746.667v-711.111h-824.889v711.111h284.451v85.333h-327.117c-23.564 0-42.667-19.103-42.667-42.667v-796.444c0-23.564 19.103-42.667 42.667-42.667h910.222c23.564 0 42.667 19.103 42.667 42.667v796.444c0 23.564-19.103 42.667-42.667 42.667h-327.111v-85.333h284.444zM341.333 451.451l-60.34-60.34 200.837-200.837c16.662-16.662 43.677-16.662 60.34 0l200.837 200.837-60.34 60.34-170.667-170.667-170.667 170.667zM554.667 234.667v711.111h-85.333v-711.111z" />
<glyph unicode="&#xe919;" glyph-name="IconDragDrop" d="M918.756 519.111h-278.756v-85.333h278.756v85.333zM384 519.111h-278.756v-85.333h278.756v85.333zM469.333 883.2v-278.756h85.333v278.756h-85.333zM469.333 348.444v-278.756h85.333v278.756h-85.333zM603.022 734.682l60.34 60.34-121.192 121.192c-16.662 16.662-43.677 16.662-60.34 0l-121.192-121.192 60.34-60.34 91.022 91.022 91.022-91.022zM420.978 200.533l-60.34-60.34 121.192-121.192c16.662-16.662 43.677-16.662 60.34 0l121.192 121.192-60.34 60.34-91.022-91.022-91.022 91.022zM244.925 566.86l-60.34 60.34-121.192-121.192c-16.662-16.662-16.662-43.677 0-60.34l121.192-121.192 60.34 60.34-91.022 91.022 91.022 91.022zM779.075 384.815l60.34-60.34 121.192 121.192c16.662 16.662 16.662 43.677 0 60.34l-121.192 121.192-60.34-60.34 91.022-91.022-91.022-91.022z" />
<glyph unicode="&#xe91a;" glyph-name="IconError" d="M56.889-49.778c-23.564 0-42.667 19.103-42.667 42.667v910.222c0 23.564 19.103 42.667 42.667 42.667h910.222c23.564 0 42.667-19.103 42.667-42.667v-910.222c0-23.564-19.103-42.667-42.667-42.667h-910.222zM99.556 35.556h824.889v824.889h-824.889v-824.889zM554.667 362.667v369.778h-85.333v-369.778zM554.667 187.557v89.776h-85.333v-89.776z" />
<glyph unicode="&#xe91b;" glyph-name="IconExport" d="M810.667 35.556h-711.111v711.111h455.111v85.333h-497.778c-23.564 0-42.667-19.103-42.667-42.667v-796.444c0-23.564 19.103-42.667 42.667-42.667h796.444c23.564 0 42.667 19.103 42.667 42.667v497.778h-85.333v-455.111zM924.444 860.444v-284.444h85.333v327.111c0 23.564-19.103 42.667-42.667 42.667h-327.111v-85.333h284.444zM936.941 933.281l-625.778-625.778 60.34-60.34 625.778 625.778z" />
<glyph unicode="&#xe91c;" glyph-name="IconGym" d="M227.556 120.889c-23.564 0-42.667 19.103-42.667 42.667v568.889c0 23.564 19.103 42.667 42.667 42.667h170.667c23.564 0 42.667-19.103 42.667-42.667v-568.889c0-23.564-19.103-42.667-42.667-42.667h-170.667zM355.556 206.222v483.556h-85.333v-483.556h85.333zM56.889 234.667c-23.564 0-42.667 19.103-42.667 42.667v341.333c0 23.564 19.103 42.667 42.667 42.667h170.667c23.564 0 42.667-19.103 42.667-42.667v-341.333c0-23.564-19.103-42.667-42.667-42.667h-170.667zM99.556 320h85.333v256h-85.333v-256zM796.444 234.667c-23.564 0-42.667 19.103-42.667 42.667v341.333c0 23.564 19.103 42.667 42.667 42.667h170.667c23.564 0 42.667-19.103 42.667-42.667v-341.333c0-23.564-19.103-42.667-42.667-42.667h-170.667zM839.111 320h85.333v256h-85.333v-256zM625.778 120.889c-23.564 0-42.667 19.103-42.667 42.667v568.889c0 23.564 19.103 42.667 42.667 42.667h170.667c23.564 0 42.667-19.103 42.667-42.667v-568.889c0-23.564-19.103-42.667-42.667-42.667h-170.667zM753.778 206.222v483.556h-85.333v-483.556h85.333zM355.556 405.333h312.889v85.333h-312.889z" />
<glyph unicode="&#xe91d;" glyph-name="IconImage" d="M14.222 903.111c0 23.564 19.103 42.667 42.667 42.667h910.222c23.564 0 42.667-19.103 42.667-42.667v-910.222c0-23.564-19.103-42.667-42.667-42.667h-910.222c-23.564 0-42.667 19.103-42.667 42.667v910.222zM99.556 860.444v-824.889h824.889v824.889h-824.889zM398.222 462.222c-86.402 0-156.444 70.043-156.444 156.444s70.043 156.444 156.444 156.444c86.402 0 156.444-70.043 156.444-156.444s-70.043-156.444-156.444-156.444zM398.222 547.556c39.274 0 71.111 31.838 71.111 71.111s-31.838 71.111-71.111 71.111c-39.274 0-71.111-31.838-71.111-71.111s31.838-71.111 71.111-71.111zM293.787 218.945l166.811-111.41 216.991 217.703 254.788-357.129 69.467 49.56-313.422 439.315-238.752-239.535-173.381 115.798-252.627-313.591 66.453-53.534z" />
<glyph unicode="&#xe91e;" glyph-name="IconInfo" d="M924.444 448c0 227.79-184.655 412.444-412.444 412.444-227.786 0-412.444-184.657-412.444-412.444 0-227.784 184.661-412.444 412.444-412.444 227.788 0 412.444 184.659 412.444 412.444zM1009.778 448c0-274.914-222.862-497.778-497.778-497.778-274.912 0-497.778 222.866-497.778 497.778 0 274.916 222.864 497.778 497.778 497.778 274.918 0 497.778-222.86 497.778-497.778zM554.667 177.778v369.778h-85.333v-369.778zM554.667 632.889v89.776h-85.333v-89.776z" />
<glyph unicode="&#xe91f;" glyph-name="IconLightning" d="M393.404 289.882h-279.627c-38.012 0-57.048 45.958-30.17 72.837l564.706 564.706c31.836 31.836 84.885-0.95 70.647-43.662l-94.221-282.664h279.627c38.012 0 57.048-45.958 30.17-72.837l-564.706-564.706c-31.836-31.836-84.885 0.95-70.647 43.662l94.221 282.664zM216.784 375.216h235.817c29.122 0 49.686-28.531 40.477-56.159l-55.787-167.36 364.068 364.068h-235.817c-29.122 0-49.686 28.531-40.477 56.159l55.787 167.36-364.068-364.068z" />
<glyph unicode="&#xe920;" glyph-name="IconLink" d="M445.606 259.842c67.429 33.402 109.061 96.042 109.061 188.158 0 3.119 0.502 10.148 2.086 19.652 2.679 16.072 7.479 32.072 14.743 46.6 19.678 39.357 53.265 61.748 111.171 61.748h113.778c70.694 0 128-57.305 128-128s-57.306-128-128-128h-156.444v-85.333h156.444c117.823 0 213.333 95.51 213.333 213.333s-95.511 213.333-213.333 213.333h-113.778c-91.427 0-153.841-41.609-187.496-108.919-19.495-38.989-25.838-77.049-25.838-104.414 0-58.599-22.369-92.256-61.606-111.693-14.239-7.054-29.921-11.702-45.722-14.278-9.552-1.557-16.817-2.046-20.431-2.029l-114.018 0.001c-70.694 0-128 57.305-128 128s57.306 128 128 128h156.444v85.333h-156.444c-117.823 0-213.333-95.51-213.333-213.333s95.511-213.333 213.333-213.333h113.666c27.924-0.123 65.791 6.057 104.385 25.175z" />
<glyph unicode="&#xe921;" glyph-name="IconLinkBroken" d="M384 661.333h-156.444c-117.823 0-213.333-95.511-213.333-213.333s95.511-213.333 213.333-213.333h156.444v85.333h-156.444c-70.694 0-128 57.306-128 128s57.306 128 128 128h156.444v85.333zM640 576h156.444c70.694 0 128-57.306 128-128s-57.306-128-128-128h-156.444v-85.333h156.444c117.823 0 213.333 95.511 213.333 213.333s-95.511 213.333-213.333 213.333h-156.444v-85.333zM554.667 746.667v199.111h-85.333v-199.111zM739.556 728.994l117.229 117.229-60.34 60.34-117.229-117.229zM344.784 789.333l-117.229 117.229-60.34-60.34 117.229-117.229zM469.333 149.333v-199.111h85.333v199.111zM284.444 167.006l-117.229-117.229 60.34-60.34 117.229 117.229zM679.216 106.667l117.229-117.229 60.34 60.34-117.229 117.229z" />
<glyph unicode="&#xe922;" glyph-name="IconList" d="M0 720h256v96h-256zM384 720h640v96h-640zM0 400h256v96h-256zM384 400h640v96h-640zM0 80h256v96h-256zM384 80h640v96h-640z" />
<glyph unicode="&#xe923;" glyph-name="IconLogout" d="M803.269 787.985c161.567-165.627 161.567-434.587 0.001-600.208-160.99-165.035-421.555-165.035-582.538-0.001-161.568 165.622-161.568 434.582-0.001 600.209l-61.084 59.586c-193.9-198.772-193.9-520.616 0.001-719.382 194.47-199.364 510.228-199.364 704.705 0.001 193.9 198.765 193.9 520.609 0 719.381l-61.084-59.586zM469.333 931.556v-512h85.333v512z" />
<glyph unicode="&#xe924;" glyph-name="IconMenu" d="M1009.778 490.667h-995.556v-85.333h995.556zM1009.778 775.111h-995.556v-85.333h995.556zM1009.778 206.222h-995.556v-85.333h995.556z" />
<glyph unicode="&#xe925;" glyph-name="IconMinus" d="M1009.778 490.667h-995.556v-85.333h995.556z" />
<glyph unicode="&#xe926;" glyph-name="IconMinusCircle" d="M924.444 448c0 227.79-184.655 412.444-412.444 412.444-227.786 0-412.444-184.657-412.444-412.444 0-227.784 184.661-412.444 412.444-412.444 227.788 0 412.444 184.659 412.444 412.444zM1009.778 448c0-274.914-222.862-497.778-497.778-497.778-274.912 0-497.778 222.866-497.778 497.778 0 274.916 222.864 497.778 497.778 497.778 274.918 0 497.778-222.86 497.778-497.778zM725.333 490.667h-426.667v-85.333h426.667z" />
<glyph unicode="&#xe927;" glyph-name="IconMoney" d="M99.556 448c0-227.784 184.661-412.444 412.444-412.444 227.788 0 412.444 184.659 412.444 412.444 0 227.79-184.655 412.444-412.444 412.444-227.786 0-412.444-184.657-412.444-412.444zM14.222 448c0 274.916 222.864 497.778 497.778 497.778 274.918 0 497.778-222.86 497.778-497.778 0-274.914-222.862-497.778-497.778-497.778-274.912 0-497.778 222.866-497.778 497.778zM691.201 561.778c0 88.297-81.778 156.444-179.2 156.444s-179.2-68.148-179.2-156.444c0-88.297 81.778-156.444 179.2-156.444v85.333c-53.385 0-93.867 33.735-93.867 71.111s40.482 71.111 93.867 71.111c53.385 0 93.867-33.735 93.867-71.111h85.333zM332.799 334.222c0-88.297 81.778-156.444 179.2-156.444s179.2 68.148 179.2 156.444c0 88.297-81.778 156.444-179.2 156.444v-85.333c53.385 0 93.867-33.735 93.867-71.111s-40.482-71.111-93.867-71.111c-53.385 0-93.867 33.735-93.867 71.111h-85.333zM469.333 789.333v-682.667h85.333v682.667z" />
<glyph unicode="&#xe928;" glyph-name="IconNo" d="M227.556 103.216l629.229 629.229-60.34 60.34-629.229-629.229zM924.444 448c0 227.79-184.655 412.444-412.444 412.444-227.786 0-412.444-184.657-412.444-412.444 0-227.784 184.661-412.444 412.444-412.444 227.788 0 412.444 184.659 412.444 412.444zM1009.778 448c0-274.914-222.862-497.778-497.778-497.778-274.912 0-497.778 222.866-497.778 497.778 0 274.916 222.864 497.778 497.778 497.778 274.918 0 497.778-222.86 497.778-497.778z" />
<glyph unicode="&#xe929;" glyph-name="IconPerson" d="M664.381 675.556c0 103.445-69.808 184.889-152.38 184.889s-152.38-81.444-152.38-184.889c0-103.445 69.808-184.889 152.38-184.889s152.38 81.444 152.38 184.889zM749.714 675.556c0-147.904-104.842-270.222-237.713-270.222s-237.713 122.318-237.713 270.222c0 147.904 104.842 270.222 237.713 270.222s237.713-122.318 237.713-270.222zM896-7.111c0-23.564-19.103-42.667-42.667-42.667h-682.667c-23.564 0-42.667 19.103-42.667 42.667v284.444c0 118.024 96.359 213.333 214.692 213.333h338.615c118.333 0 214.692-95.309 214.692-213.333v-284.444zM810.667 35.556v241.778c0 70.685-57.946 128-129.359 128h-338.615c-71.413 0-129.359-57.315-129.359-128v-241.778h597.333zM298.667 220.444v-227.556h85.333v227.556zM640 220.444v-227.556h85.333v227.556z" />
<glyph unicode="&#xe92a;" glyph-name="IconPlane" d="M355.556 588.147l-317.748-158.874c-14.455-7.227-23.586-22.001-23.586-38.162v-170.667c0-29.122 28.531-49.686 56.159-40.477l285.174 95.058v-85.1l-90.192-45.096c-14.455-7.227-23.586-22.001-23.586-38.162v-113.778c0-23.564 19.103-42.667 42.667-42.667h455.111c23.564 0 42.667 19.103 42.667 42.667v113.778c0 16.161-9.131 30.935-23.586 38.162l-90.192 45.096v85.1l285.174-95.058c27.628-9.209 56.159 11.355 56.159 40.477v170.667c0 16.161-9.131 30.935-23.586 38.162l-317.748 158.874v201.186h-85.333v-227.556c0-16.161 9.131-30.935 23.586-38.162l317.748-158.874v-85.1l-285.174 95.058c-27.628 9.209-56.159-11.355-56.159-40.477v-170.667c0-16.161 9.131-30.935 23.586-38.162l90.192-45.096v-44.742h-369.778v44.742l90.192 45.096c14.455 7.227 23.586 22.001 23.586 38.162v170.667c0 29.122-28.531 49.686-56.159 40.477l-285.174-95.058v85.1l317.748 158.874c14.455 7.227 23.586 22.001 23.586 38.162v227.556h-85.333v-201.186zM440.889 789.333c0 39.273 31.838 71.111 71.111 71.111s71.111-31.838 71.111-71.111h85.333c0 86.401-70.043 156.444-156.444 156.444s-156.444-70.043-156.444-156.444h85.333z" />
<glyph unicode="&#xe92b;" glyph-name="IconPlus" d="M1009.778 490.667h-995.556v-85.333h995.556zM469.333 945.778v-995.556h85.333v995.556z" />
<glyph unicode="&#xe92c;" glyph-name="IconPlusCircle" d="M556.236 243.968v404.926h-85.333v-404.926zM716.032 489.097h-404.926v-85.333h404.926zM922.875 446.431c0 226.056-183.249 409.306-409.306 409.306-226.052 0-409.306-183.252-409.306-409.306 0-226.050 183.256-409.306 409.306-409.306 226.054 0 409.306 183.253 409.306 409.306zM1008.208 446.431c0-273.181-221.456-494.639-494.639-494.639-273.178 0-494.639 221.461-494.639 494.639 0 273.183 221.459 494.639 494.639 494.639 273.185 0 494.639-221.454 494.639-494.639z" />
<glyph unicode="&#xe92d;" glyph-name="IconRefresh" d="M99.556 945.778h-85.333v-327.111c0-23.564 19.103-42.667 42.667-42.667h327.111v85.333h-284.444v284.444zM924.444-49.778h85.333v327.111c0 23.564-19.103 42.667-42.667 42.667h-327.111v-85.333h284.444v-284.444zM894.477 293.335c-62.55-154.523-212.92-257.781-382.478-257.781-227.784 0-412.444 184.661-412.444 412.444h-85.333c0-274.912 222.866-497.778 497.778-497.778 204.618 0 386.090 124.615 461.576 311.095l-79.098 32.019zM129.523 602.665c62.55 154.523 212.92 257.781 382.478 257.781 227.784 0 412.444-184.661 412.444-412.444h85.333c0 274.912-222.866 497.778-497.778 497.778-204.618 0-386.090-124.615-461.576-311.095l79.098-32.019z" />
<glyph unicode="&#xe92e;" glyph-name="IconSearch" d="M597.333 206.222c180.659 0 327.111 146.453 327.111 327.111 0 180.661-146.45 327.111-327.111 327.111-180.658 0-327.111-146.452-327.111-327.111 0-180.656 146.455-327.111 327.111-327.111zM597.333 120.889c-227.784 0-412.444 184.66-412.444 412.444 0 227.788 184.659 412.444 412.444 412.444 227.789 0 412.444-184.655 412.444-412.444 0-227.786-184.657-412.444-412.444-412.444zM56.889-67.451l287.895 287.895-60.34 60.34-287.895-287.895z" />
<glyph unicode="&#xe92f;" glyph-name="IconShare" d="M924.442 519.111v-483.556h-824.889v483.556h284.451v85.333h-327.117c-23.564 0-42.667-19.103-42.667-42.667v-568.889c0-23.564 19.103-42.667 42.667-42.667h910.222c23.564 0 42.667 19.103 42.667 42.667v568.889c0 23.564-19.103 42.667-42.667 42.667h-327.111v-85.333h284.444zM512 842.771l170.667-170.667 60.34 60.34-200.837 200.837c-16.662 16.662-43.677 16.662-60.34 0l-200.837-200.837 60.34-60.34 170.667 170.667zM554.667 177.778v711.111h-85.333v-711.111z" />
<glyph unicode="&#xe930;" glyph-name="IconSoup" d="M101.77 405.528c21.499-205.948 196.907-366.639 410.23-366.639 213.327 0 388.731 160.69 410.23 366.639h-820.46zM1009.778 448.195c0-273.247-222.927-494.639-497.778-494.639-274.846 0-497.778 221.394-497.778 494.639 0 23.564 19.103 42.667 42.667 42.667h910.222c23.564 0 42.667-19.103 42.667-42.667zM481.379 929.879c-6.86-7.070-15.901-18.42-24.795-33.586-34.368-58.602-36.924-125.030 14.989-184.824 3.255-3.749 6.709-7.438 10.361-11.065 4.92-4.378 10.386-10.168 15.961-18.287 20.587-29.986 20.587-56.744-14.9-89.636l58.009-62.584c69.863 64.756 69.863 138.437 27.24 200.519-10.228 14.898-20.564 25.847-28.411 32.601 0.059 0.094-1.958 2.248-3.823 4.397-24.477 28.193-23.419 55.7-5.818 85.712 5.065 8.636 9.983 14.81 12.428 17.33l-61.242 59.424zM746.158 929.879c-6.86-7.070-15.901-18.42-24.795-33.586-34.368-58.602-36.924-125.030 14.989-184.824 3.255-3.749 6.709-7.438 10.361-11.065 4.92-4.378 10.386-10.168 15.961-18.287 20.587-29.986 20.587-56.744-14.9-89.636l58.009-62.584c69.863 64.756 69.863 138.437 27.24 200.519-10.228 14.898-20.564 25.847-28.411 32.601 0.059 0.094-1.958 2.248-3.823 4.397-24.477 28.193-23.419 55.7-5.818 85.712 5.065 8.636 9.983 14.81 12.428 17.33l-61.242 59.424zM211.684 929.879c-6.86-7.070-15.901-18.42-24.795-33.586-34.368-58.602-36.924-125.030 14.989-184.824 3.255-3.749 6.709-7.438 10.361-11.065 4.92-4.378 10.386-10.168 15.961-18.287 20.587-29.986 20.587-56.744-14.9-89.636l58.009-62.584c69.863 64.756 69.863 138.437 27.24 200.519-10.228 14.898-20.564 25.847-28.411 32.601 0.059 0.094-1.958 2.248-3.823 4.397-24.477 28.193-23.419 55.7-5.818 85.712 5.065 8.636 9.983 14.81 12.428 17.33l-61.242 59.424z" />
<glyph unicode="&#xe931;" glyph-name="IconSquare" d="M56.889-49.778c-23.564 0-42.667 19.103-42.667 42.667v910.222c0 23.564 19.103 42.667 42.667 42.667h910.222c23.564 0 42.667-19.103 42.667-42.667v-910.222c0-23.564-19.103-42.667-42.667-42.667h-910.222zM99.556 35.556h824.889v824.889h-824.889v-824.889z" />
<glyph unicode="&#xe932;" glyph-name="IconStopWatch" d="M867.556 391.111c0 196.368-159.187 355.556-355.556 355.556s-355.556-159.187-355.556-355.556c0-196.368 159.187-355.556 355.556-355.556s355.556 159.187 355.556 355.556zM952.889 391.111c0-243.497-197.392-440.889-440.889-440.889s-440.889 197.392-440.889 440.889c0 243.497 197.392 440.889 440.889 440.889s440.889-197.392 440.889-440.889zM469.333 903.111v-113.778h85.333v113.778zM843.869 783.32l-80.454-80.454 60.34-60.34 80.454 80.454zM625.778 945.778h-227.556v-85.333h227.556zM469.333 433.778h-184.889v-85.333h227.556c23.564 0 42.667 19.103 42.667 42.667v227.556h-85.333v-184.889z" />
<glyph unicode="&#xe933;" glyph-name="IconTag" d="M574.068-33.271l419.203 419.203c15.785 15.785 15.785 41.379 0 57.164l-457.312 457.312c-8.053 8.053-19.129 12.335-30.505 11.793l-400.148-19.055c-20.812-0.991-37.462-17.64-38.453-38.453l-19.055-400.148c-0.542-11.376 3.74-22.452 11.793-30.505l457.312-457.312c15.785-15.785 41.379-15.785 57.164 0zM129.4 468.562l16.456 345.582 345.582 16.456 416.086-416.086-362.039-362.039-416.086 416.086zM497.849 462.151c57.88 57.88 57.88 151.722 0 209.601s-151.722 57.88-209.601 0c-57.88-57.88-57.88-151.722 0-209.601s151.722-57.88 209.601 0zM440.685 519.315c-26.309-26.309-68.964-26.309-95.273 0s-26.309 68.964 0 95.273c26.309 26.309 68.964 26.309 95.273 0s26.309-68.964 0-95.273z" />
<glyph unicode="&#xe934;" glyph-name="IconTrash" d="M71.819 702.014c-4.836 26.222 15.295 50.405 41.959 50.405h780.19c26.664 0 46.795-24.184 41.959-50.405l-130.032-705.042c-3.733-20.238-21.379-34.928-41.959-34.928h-520.127c-20.58 0-38.226 14.69-41.959 34.928l-130.032 705.042zM165.033 667.086l114.294-619.709h449.093l114.294 619.709h-677.68zM676.571 709.752c0-23.564-19.103-42.667-42.667-42.667h-260.063c-23.564 0-42.667 19.103-42.667 42.667v193.359c0 23.564 19.103 42.667 42.667 42.667h260.063c23.564 0 42.667-19.103 42.667-42.667v-193.359zM591.238 752.419v108.026h-174.73v-108.026h174.73zM355.556 561.778v-398.222h85.333v398.222zM583.111 561.778v-398.222h85.333v398.222z" />
<glyph unicode="&#xe935;" glyph-name="IconZoom" d="M597.333 206.222c180.659 0 327.111 146.453 327.111 327.111 0 180.661-146.45 327.111-327.111 327.111-180.658 0-327.111-146.452-327.111-327.111 0-180.656 146.455-327.111 327.111-327.111zM597.333 120.889c-227.784 0-412.444 184.66-412.444 412.444 0 227.788 184.659 412.444 412.444 412.444 227.789 0 412.444-184.655 412.444-412.444 0-227.786-184.657-412.444-412.444-412.444zM806.255 570.98h-407.196v-85.333h407.196zM559.99 731.912v-407.196h85.333v407.196zM56.889-67.451l287.895 287.895-60.34 60.34-287.895-287.895z" />
<glyph unicode="&#xe936;" glyph-name="IconDoorway" d="M0 0h1024v-64h-1024v64zM192 960h640v-1024h-640v1024zM384 384c35.346 0 64 28.654 64 64s-28.654 64-64 64c-35.346 0-64-28.654-64-64s28.654-64 64-64z" />
<glyph unicode="&#xe937;" glyph-name="IconSwitch" d="M901.333 241.255h-721.778v-96h721.778zM787.556 755.012h-721.778v-96h721.778zM311.216-34.301l-281.098 227.556 281.098 227.556zM712.784 934.567l281.098-227.556-281.098-227.556z" />
<glyph unicode="&#xe938;" glyph-name="IconDensityMark" horiz-adv-x="1170" d="M275.674 255.255c62.941 38.091 115.706 91.39 153.212 154.832 39.305 66.461 61.857 144.035 61.857 226.908v294.878c0 15.536 12.555 28.127 28.035 28.127h132.723c15.491 0 28.035-12.591 28.035-28.127v-294.878c0-82.862 22.562-160.447 61.857-226.908 37.516-63.442 90.271-116.742 153.222-154.832l261.646-151.508c13.417-7.768 18.006-24.961 10.26-38.407l-66.351-115.274c-7.745-13.457-24.888-18.058-38.306-10.29l-257.068 148.848c-64.783 37.035-139.752 58.197-219.657 58.197-79.895 0-154.875-21.161-219.657-58.197l-257.058-148.848c-13.417-7.768-30.56-3.166-38.306 10.29l-66.361 115.274c-7.735 13.446-3.147 30.639 10.271 38.407l261.646 151.508z" />
<glyph unicode="&#xe93a;" glyph-name="IconBluetooth" horiz-adv-x="569" d="M325.633 101.806l123.071 123.071-123.071 123.071v-246.143zM448.705 677.033l-123.071 123.071v-246.143l123.071 123.071zM325.633 553.962v-206.013l-103.006 103.006 103.006 103.006zM56.889 164.538l-60.34 60.34 226.078 226.078-226.078 226.078 60.34 60.34 482.326-482.326c16.662-16.662 16.662-43.677 0-60.34l-226.078-226.078c-26.879-26.878-72.837-7.842-72.837 30.17v904.312c0 38.012 45.958 57.048 72.837 30.17l226.078-226.078c16.662-16.662 16.662-43.677 0-60.34l-482.326-482.326z" />
<glyph unicode="&#xe93b;" glyph-name="IconProgress" d="M105.315 496.667c11.328 91.563 53.004 175.769 117.653 240.418 64.559 64.559 148.62 106.211 240.033 117.607l-10.556 84.678c-110.415-13.765-211.945-64.073-289.817-141.945-77.981-77.981-128.318-179.686-142.001-290.28l84.688-10.478zM463.004 36.192c-91.419 11.402-175.474 53.052-240.030 117.607-64.654 64.648-106.331 148.853-117.659 240.418l-84.688-10.478c13.683-110.596 64.022-212.301 142.008-290.281 77.867-77.867 179.389-128.172 289.807-141.944l10.561 84.677zM923.865 393.834c-11.402-91.419-53.052-175.474-117.607-240.030-64.649-64.654-148.854-106.331-240.424-117.659l10.477-84.688c110.602 13.683 212.307 64.021 290.288 142.008 77.867 77.867 128.172 179.389 141.944 289.807l-84.677 10.561zM566.224 854.695c91.419-11.402 175.474-53.052 240.030-117.607 64.558-64.558 106.212-148.619 117.614-240.036l84.677 10.561c-13.771 110.416-64.081 211.944-141.951 289.814s-179.39 128.173-289.808 141.945l-10.561-84.677z" />
<glyph unicode="&#xe93c;" glyph-name="IconClock" d="M924.444 448c0 227.79-184.655 412.444-412.444 412.444-227.786 0-412.444-184.657-412.444-412.444 0-227.784 184.661-412.444 412.444-412.444 227.788 0 412.444 184.659 412.444 412.444zM1009.778 448c0-274.914-222.862-497.778-497.778-497.778-274.912 0-497.778 222.866-497.778 497.778 0 274.916 222.864 497.778 497.778 497.778 274.918 0 497.778-222.86 497.778-497.778zM554.667 490.667v184.889h-85.333v-227.556c0-23.564 19.103-42.667 42.667-42.667h227.556v85.333h-184.889z" />
<glyph unicode="&#xe93d;" glyph-name="IconGlobe" d="M924.444 448c0 227.79-184.655 412.444-412.444 412.444-227.786 0-412.444-184.657-412.444-412.444 0-227.784 184.661-412.444 412.444-412.444 227.788 0 412.444 184.659 412.444 412.444zM1009.778 448c0-274.914-222.862-497.778-497.778-497.778-274.912 0-497.778 222.866-497.778 497.778 0 274.916 222.864 497.778 497.778 497.778 274.918 0 497.778-222.86 497.778-497.778zM924.444 448c0 59.279-183.257 128-412.444 128-229.183 0-412.444-68.722-412.444-128s183.262-128 412.444-128c229.187 0 412.444 68.721 412.444 128zM1009.778 448c0-129.238-224.255-213.333-497.778-213.333-273.519 0-497.778 84.096-497.778 213.333s224.259 213.333 497.778 213.333c273.523 0 497.778-84.095 497.778-213.333zM512 860.444c-59.279 0-128-183.257-128-412.444 0-229.183 68.722-412.444 128-412.444s128 183.262 128 412.444c0 229.187-68.721 412.444-128 412.444zM512 945.778c129.238 0 213.333-224.255 213.333-497.778 0-273.519-84.096-497.778-213.333-497.778s-213.333 224.259-213.333 497.778c0 273.523 84.095 497.778 213.333 497.778z" />
<glyph unicode="&#xe93e;" glyph-name="IconShow" horiz-adv-x="1317" d="M658.286 64c295.738 0 530.286 175.912 530.286 384 0 208.091-234.545 384-530.286 384-295.736 0-530.286-175.911-530.286-384 0-208.085 234.553-384 530.286-384zM658.286-45.714c-350.59 0-640 217.058-640 493.714 0 276.661 289.407 493.714 640 493.714 350.598 0 640-217.051 640-493.714 0-276.659-289.405-493.714-640-493.714zM658.286 246.857c-111.088 0-201.143 90.055-201.143 201.143s90.055 201.143 201.143 201.143c111.088 0 201.143-90.055 201.143-201.143s-90.055-201.143-201.143-201.143zM658.286 356.571c50.495 0 91.429 40.934 91.429 91.429s-40.934 91.429-91.429 91.429c-50.495 0-91.429-40.934-91.429-91.429s40.934-91.429 91.429-91.429z" />
<glyph unicode="&#xe93f;" glyph-name="IconHide" horiz-adv-x="1317" d="M658.286 64c295.738 0 530.286 175.912 530.286 384 0 208.091-234.545 384-530.286 384-295.736 0-530.286-175.911-530.286-384 0-208.085 234.553-384 530.286-384zM658.286-45.714c-350.59 0-640 217.058-640 493.714 0 276.661 289.407 493.714 640 493.714 350.598 0 640-217.051 640-493.714 0-276.659-289.405-493.714-640-493.714zM73.143 393.143h1170.286v109.714h-1170.286z" />
<glyph unicode="&#xe940;" glyph-name="IconCamera" horiz-adv-x="1152" d="M1040 720h-272c-26.51 0-48 21.49-48 48v80h-288v-80c0-26.51-21.49-48-48-48h-272v-672h928v672zM816 816h272c26.51 0 48-21.49 48-48v-768c0-26.51-21.49-48-48-48h-1024c-26.51 0-48 21.49-48 48v768c0 26.51 21.49 48 48 48h272v80c0 26.51 21.49 48 48 48h384c26.51 0 48-21.49 48-48v-80zM576 144c-132.548 0-240 107.452-240 240s107.452 240 240 240c132.548 0 240-107.452 240-240s-107.452-240-240-240zM576 240c79.529 0 144 64.471 144 144s-64.471 144-144 144c-79.529 0-144-64.471-144-144s64.471-144 144-144z" />
<glyph unicode="&#xe941;" glyph-name="IconLock" horiz-adv-x="796" d="M398.222-49.778c-212.077 0-384 171.923-384 384s171.923 384 384 384c212.077 0 384-171.923 384-384s-171.923-384-384-384zM398.222 35.556c164.949 0 298.667 133.718 298.667 298.667s-133.718 298.667-298.667 298.667c-164.949 0-298.667-133.718-298.667-298.667s133.718-298.667 298.667-298.667zM398.222 177.778c-86.402 0-156.444 70.043-156.444 156.444s70.043 156.444 156.444 156.444c86.402 0 156.444-70.043 156.444-156.444s-70.043-156.444-156.444-156.444zM398.222 263.111c39.274 0 71.111 31.838 71.111 71.111s-31.838 71.111-71.111 71.111c-39.274 0-71.111-31.838-71.111-71.111s31.838-71.111 71.111-71.111zM611.556 618.667v113.778c0 117.821-95.513 213.333-213.333 213.333s-213.333-95.513-213.333-213.333v-113.778h85.333v113.778c0 70.692 57.308 128 128 128s128-57.308 128-128v-113.778h85.333z" />
<glyph unicode="&#xe942;" glyph-name="IconImageUpload" d="M512 842.771l170.667-170.667 60.34 60.34-200.837 200.837c-16.662 16.662-43.677 16.662-60.34 0l-200.837-200.837 60.34-60.34 170.667 170.667zM554.667 519.111v369.778h-85.333v-369.778zM460.595 107.551l216.968 219.034 254.742-359.287 69.611 49.356-313.494 442.15-238.796-241.070-173.398 116.529-252.69-315.622 66.614-53.332 203.63 254.344z" />
</font>
</defs>
</svg>
